<?xml version="1.0" encoding="iso-8859-1"?>
<!-- Generator: Adobe Illustrator 19.0.0, SVG Export Plug-In . SVG Version: 6.00 Build 0)  -->
<svg version="1.1" id="Layer_1" xmlns="http://www.w3.org/2000/svg" xmlns:xlink="http://www.w3.org/1999/xlink" x="0px" y="0px"
	 viewBox="0 0 512 512" style="enable-background:new 0 0 512 512;" xml:space="preserve">
<g>
	<g>
		<path d="M499.137,211.102c-4.089-36.806-8.896-65.873-14.286-86.393c-3.898-14.835-9.101-29.89-18.31-37.646
			c4.486-3.992,7.331-9.791,7.331-16.254c0-12.013-9.774-21.787-21.787-21.787c-12.009,0-21.783,9.772-21.787,21.787
			c0,6.464,2.845,12.262,7.33,16.255c-9.208,7.756-14.412,22.811-18.31,37.646c-3.451,13.14-6.661,29.799-9.601,49.735
			c-4.444-38.059-9.604-68.306-15.358-89.934c-4.348-16.349-10.13-32.951-20.283-41.142c4.41-3.99,7.2-9.736,7.2-16.135
			c0-12.013-9.774-21.787-21.787-21.787c-12.009,0-21.783,9.772-21.787,21.787c0,6.4,2.789,12.145,7.197,16.135
			c-10.153,8.191-15.935,24.792-20.283,41.142c-4.897,18.408-9.366,43.053-13.327,73.447H200.711
			c-3.962-30.394-8.431-55.038-13.327-73.447c-4.349-16.349-10.131-32.951-20.283-41.142c4.408-3.99,7.197-9.736,7.197-16.135
			c0-12.013-9.774-21.787-21.787-21.787c-12.009,0-21.783,9.772-21.787,21.787c0,6.4,2.79,12.144,7.197,16.135
			c-10.153,8.191-15.935,24.793-20.284,41.142c-5.753,21.628-10.914,51.875-15.357,89.934c-2.938-19.935-6.149-36.596-9.601-49.735
			c-3.897-14.835-9.101-29.89-18.309-37.646c4.486-3.994,7.331-9.792,7.331-16.255c0-12.013-9.774-21.787-21.787-21.787
			c-12.009,0-21.783,9.772-21.787,21.787c0,6.464,2.845,12.262,7.33,16.255c-9.208,7.756-14.412,22.811-18.309,37.646
			c-5.39,20.52-10.198,49.587-14.287,86.393C4.568,285.753,0,384.877,0,490.213v16.34h512v-16.34
			C512,384.876,507.432,285.753,499.137,211.102z M32.719,473.872c0.415-89.678,4.238-175.212,10.87-242.404
			c5.579-56.519,11.763-86.74,16.326-102.646c4.563,15.906,10.748,46.127,16.326,102.646c6.632,67.192,10.455,152.724,10.87,242.404
			H32.719z M119.865,473.872c0.425-100.975,4.781-197.229,12.373-272.599c7.07-70.181,14.987-103.712,20.273-119.391
			c5.286,15.679,13.203,49.209,20.272,119.391c7.593,75.371,11.949,171.625,12.374,272.6L119.865,473.872z M294.166,473.872H272.34
			v-21.787c0-9.024-7.316-16.34-16.34-16.34c-9.024,0-16.34,7.316-16.34,16.34v21.787h-21.824
			c-0.136-33.017-0.682-65.397-1.616-96.683c8.908,12.359,23.415,20.428,39.78,20.428s30.873-8.069,39.781-20.428
			C294.848,408.476,294.301,440.855,294.166,473.872z M239.66,348.596c0-9.01,7.33-16.34,16.34-16.34c9.01,0,16.34,7.33,16.34,16.34
			c0,9.01-7.33,16.34-16.34,16.34C246.99,364.936,239.66,357.606,239.66,348.596z M297.833,323.069
			c-8.622-14.079-24.148-23.494-41.833-23.494s-33.21,9.416-41.834,23.495c-0.544-11.687-1.146-23.151-1.803-34.389h87.272
			C298.979,299.918,298.376,311.383,297.833,323.069z M221.559,256c6.131-12.87,19.263-21.787,34.441-21.787
			c15.178,0,28.31,8.918,34.441,21.787H221.559z M304.542,220.862c-12.686-11.969-29.766-19.33-48.542-19.33
			c-18.777,0-35.856,7.361-48.543,19.33c-0.916-10.404-1.891-20.479-2.919-30.223h102.925
			C306.434,200.383,305.459,210.457,304.542,220.862z M326.842,473.872c0.426-100.974,4.782-197.229,12.374-272.599
			c7.07-70.181,14.987-103.712,20.272-119.391c5.286,15.679,13.202,49.209,20.272,119.391c7.593,75.371,11.949,171.625,12.374,272.6
			L326.842,473.872z M424.889,473.872c0.415-89.68,4.238-175.212,10.87-242.404c5.579-56.519,11.763-86.742,16.326-102.646
			c4.564,15.905,10.748,46.127,16.326,102.646c6.632,67.192,10.455,152.724,10.87,242.404H424.889z"/>
	</g>
</g>
<g>
	<g>
		<rect x="343.149" y="315.915" width="32.681" height="108.936"/>
	</g>
</g>
<g>
	<g>
		<rect x="136.17" y="315.915" width="32.681" height="108.936"/>
	</g>
</g>
<g>
</g>
<g>
</g>
<g>
</g>
<g>
</g>
<g>
</g>
<g>
</g>
<g>
</g>
<g>
</g>
<g>
</g>
<g>
</g>
<g>
</g>
<g>
</g>
<g>
</g>
<g>
</g>
<g>
</g>
</svg>
