<?xml version="1.0" encoding="UTF-8"?>
<svg width="113px" height="122px" viewBox="0 0 113 122" version="1.1" xmlns="http://www.w3.org/2000/svg" xmlns:xlink="http://www.w3.org/1999/xlink">
    <title>no-results</title>
    <defs>
        <linearGradient x1="50%" y1="100%" x2="50%" y2="0%" id="linearGradient-1">
            <stop stop-color="#808080" stop-opacity="0.25" offset="0%"></stop>
            <stop stop-color="#808080" stop-opacity="0.12" offset="54%"></stop>
            <stop stop-color="#808080" stop-opacity="0.1" offset="100%"></stop>
        </linearGradient>
        <rect id="path-2" x="0.0934013758" y="0.0735428544" width="24.8707108" height="16.9726402"></rect>
        <linearGradient x1="50.0002221%" y1="100.000449%" x2="50.0002221%" y2="0.00140337287%" id="linearGradient-4">
            <stop stop-color="#B3B3B3" stop-opacity="0.25" offset="0%"></stop>
            <stop stop-color="#B3B3B3" stop-opacity="0.1" offset="54%"></stop>
            <stop stop-color="#B3B3B3" stop-opacity="0.05" offset="100%"></stop>
        </linearGradient>
    </defs>
    <g id="Page-1" stroke="none" stroke-width="1" fill="none" fill-rule="evenodd">
        <g id="Query-/--6" transform="translate(-794.000000, -737.000000)">
            <g id="Group-2" transform="translate(784.000000, 737.000000)">
                <g id="no-results" transform="translate(10.000000, 0.000000)">
                    <g id="Group" opacity="0.5" transform="translate(0.399999, 6.439999)" fill="url(#linearGradient-1)" fill-rule="nonzero">
                        <rect id="Rectangle" x="0.600001001" y="0.560000851" width="78" height="105"></rect>
                    </g>
                    <rect id="Rectangle" fill="#F2F2F2" fill-rule="nonzero" x="3.71999895" y="9.41999907" width="75.2399971" height="100.319996"></rect>
                    <rect id="Rectangle" fill="#E0E0E0" fill-rule="nonzero" x="43.3199974" y="72.1199967" width="25.739999" height="1"></rect>
                    <rect id="Rectangle" fill="#E0E0E0" fill-rule="nonzero" x="43.9799974" y="74.0999966" width="25.739999" height="1"></rect>
                    <rect id="Rectangle" fill="#E0E0E0" fill-rule="nonzero" x="44.6399974" y="76.7399965" width="25.739999" height="1"></rect>
                    <g id="Clipped" transform="translate(41.339998, 76.079997)">
                        <mask id="mask-3" fill="white">
                            <use xlink:href="#path-2"></use>
                        </mask>
                        <g id="7439734d-5f7c-428f-88ce-e68b86a45c07"></g>
                    </g>
                    <g id="Group" opacity="0.5" transform="translate(11.619999, 0.159999)" fill="#ADADAD" fill-opacity="0.359238418" fill-rule="nonzero">
                        <polygon id="Rectangle" transform="translate(50.460673, 60.463219) rotate(-78.760000) translate(-50.460673, -60.463219) " points="-2.98304695 20.0403808 103.960673 19.9632188 103.904394 100.886057 -3.03932656 100.963219"></polygon>
                    </g>
                    <polygon id="Rectangle" fill="#FFFFFF" fill-rule="nonzero" transform="translate(61.868567, 60.630906) rotate(-78.760000) translate(-61.868567, -60.630906) " points="11.6826176 23.1809216 112.068539 23.1621501 112.054517 98.0808911 11.6685956 98.0996626"></polygon>
                    <path d="M86.9965417,45.4082879 C81.9555441,40.1762935 75.0122188,37.1954133 67.7391035,37.1407628 C60.4659882,37.0861123 53.4784664,39.9623155 48.3590855,45.1179644 C38.1416594,55.3967997 37.9684827,72.1336054 47.9625108,82.6301834 C57.0278402,92.1518495 71.6527179,93.7623781 82.5805355,86.4424078 L102.095819,106.697658 C102.598954,107.2196 103.43079,107.235845 103.954005,106.733949 L108.816807,102.068035 C109.339851,101.565961 109.356132,100.735878 108.853175,100.213766 L89.3430861,79.9602438 C97.0648933,69.4001283 96.0755348,54.832208 86.9965417,45.4082879 Z M80.9180391,77.9746383 C73.230407,85.349671 61.0071161,85.1095443 53.6163186,77.4382957 C46.2255211,69.7670472 46.4658625,57.5695195 54.1531407,50.1941195 C61.840419,42.8187196 74.0637214,43.0582623 81.4548869,50.7291578 C85.0044764,54.4130869 86.9420746,59.3532791 86.841395,64.4628541 C86.7407154,69.5724291 84.6100059,74.4327966 80.9180391,77.9746383 L80.9180391,77.9746383 Z" id="Shape" fill="url(#linearGradient-4)" fill-rule="nonzero"></path>
                    <path d="M88.9777127,44.7482879 C83.936588,39.5162936 76.9930875,36.5354134 69.7197887,36.4807629 C62.4464899,36.4261124 55.4587917,39.3023156 50.3392817,44.4579644 C40.1215979,54.7367997 39.9484168,71.4736055 49.942697,81.9701835 C59.0087059,91.4912929 73.6339086,93.1010865 84.5615951,85.7806797 L104.075639,106.037658 C104.578787,106.5596 105.410644,106.575845 105.933872,106.073949 L110.796797,101.408035 C111.319854,100.905961 111.336135,100.075878 110.833165,99.5537661 L91.3173891,79.2985158 C99.0402636,68.7403719 98.0538349,54.173684 88.9777127,44.7482879 L88.9777127,44.7482879 Z M82.8990568,77.3008134 C75.2112307,84.6758461 62.9876314,84.4357194 55.5966474,76.7644708 C48.2056635,69.0932223 48.4460109,56.8956946 56.1334831,49.5202946 C63.8209553,42.1448947 76.0445661,42.3844374 83.4359181,50.0553329 C86.9855971,53.7392619 88.9232442,58.6794542 88.8225621,63.7890292 C88.7218799,68.8986042 86.5911167,73.7589717 82.8990568,77.3008134 Z" id="Shape" fill="#4F8FFE" fill-rule="nonzero"></path>
                </g>
            </g>
        </g>
    </g>
</svg>